<svg xmlns="http://www.w3.org/2000/svg" viewBox="0 0 536.34 536.34"><defs><style>.cls-1{fill:#fff;}</style></defs><title>albm_brdr</title><g id="Layer_2" data-name="Layer 2"><g id="Layer_1-2" data-name="Layer 1"><path class="cls-1" d="M78.42,78.67c15.79-1,31.58-1.79,47.38-2.52l47.38,0H410c15.79.76,31.58,1.5,47.38,2.5-15.79,1-31.58,1.74-47.37,2.5H173.17l-47.38,0C110,80.46,94.21,79.71,78.42,78.67Z"/><path class="cls-1" d="M78.92,457.67c15.79-1,31.58-1.79,47.38-2.52l47.38,0H410.55c15.79.76,31.58,1.5,47.38,2.5-15.79,1-31.58,1.74-47.37,2.5H173.67l-47.38,0C110.5,459.46,94.71,458.71,78.92,457.67Z"/><path class="cls-1" d="M457.67,78.42c1,15.79,1.79,31.58,2.52,47.38l0,47.38V410c-.76,15.79-1.5,31.58-2.5,47.38-1-15.79-1.74-31.58-2.5-47.37V173.17l0-47.37C455.89,110,456.63,94.21,457.67,78.42Z"/><path class="cls-1" d="M78.67,78.92c1,15.79,1.79,31.58,2.52,47.38l0,47.38V410.55c-.76,15.79-1.5,31.58-2.5,47.38-1-15.79-1.74-31.58-2.5-47.37V173.67l0-47.37C76.89,110.5,77.63,94.71,78.67,78.92Z"/><path class="cls-1" d="M268,0c11.9,10.43,23.6,21.07,35.28,31.72l33.49,33.51,67,67,67,67,33.5,33.5c10.63,11.7,21.27,23.39,31.73,35.27-11.88-10.46-23.56-21.1-35.27-31.73l-33.5-33.5-67-67-67-67L299.71,35.28C289.06,23.6,278.43,11.9,268,0Z"/><path class="cls-1" d="M.35,268.35c11.9,10.43,23.6,21.07,35.28,31.72l33.49,33.51,67,67,67,67,33.5,33.5c10.63,11.7,21.27,23.39,31.73,35.27-11.88-10.46-23.56-21.1-35.27-31.73l-33.5-33.5-67-67-67-67L32.07,303.63C21.42,291.94,10.79,280.25.35,268.35Z"/><path class="cls-1" d="M536.34,268c-10.43,11.9-21.07,23.59-31.72,35.28l-33.51,33.49-67,67-67,67-33.5,33.5c-11.7,10.63-23.39,21.27-35.27,31.73,10.46-11.88,21.1-23.56,31.73-35.27l33.5-33.5,67-67,67-67,33.49-33.51C512.75,289.06,524.44,278.43,536.34,268Z"/><path class="cls-1" d="M268,.35c-10.43,11.9-21.07,23.59-31.72,35.28L202.76,69.12l-67,67-67,67-33.5,33.5C23.56,247.24,11.88,257.89,0,268.35c10.46-11.88,21.1-23.56,31.73-35.27l33.5-33.5,67-67,67-67,33.49-33.51C244.4,21.42,256.09,10.79,268,.35Z"/><path class="cls-1" d="M372.52,21.14c6.89,14.24,13.52,28.6,20.13,43L410.43,108,446,195.82l35.59,87.81,17.79,43.91c5.23,14.92,10.48,29.83,15.48,44.84-6.86-14.26-13.48-28.62-20.11-43L477,285.51,441.38,197.7l-35.59-87.81L388,66C382.73,51.08,377.49,36.16,372.52,21.14Z"/><path class="cls-1" d="M21.46,164c6.89,14.24,13.52,28.6,20.13,43l17.78,43.91L95,338.64l35.59,87.81,17.79,43.91c5.23,14.92,10.48,29.83,15.48,44.85-6.86-14.26-13.48-28.62-20.11-43l-17.79-43.91L90.32,340.52,54.73,252.71l-17.81-43.9C31.67,193.9,26.43,179,21.46,164Z"/><path class="cls-1" d="M515.21,372.52c-14.24,6.89-28.6,13.52-43,20.13l-43.91,17.78L340.52,446l-87.81,35.59L208.8,499.4C193.88,504.63,179,509.88,164,514.88c14.26-6.86,28.62-13.48,43-20.11L250.83,477l87.81-35.59,87.81-35.59L470.35,388C485.26,382.73,500.18,377.49,515.21,372.52Z"/><path class="cls-1" d="M372.38,21.46c-14.24,6.89-28.6,13.52-43,20.13L285.51,59.37,197.7,95l-87.81,35.59L66,148.34c-14.92,5.23-29.83,10.48-44.85,15.48,14.26-6.86,28.62-13.48,43-20.11L108,125.91l87.81-35.59,87.81-35.59,43.9-17.81C342.44,31.67,357.36,26.43,372.38,21.46Z"/><path class="cls-1" d="M516.46,166.83c-5.17,15-10.61,29.8-16.06,44.64L482,255.13l-36.77,87.32-36.77,87.32-18.38,43.66c-6.83,14.26-13.64,28.53-20.69,42.69,5.2-14.94,10.65-29.78,16.08-44.63l18.38-43.66,36.77-87.32,36.77-87.32,18.37-43.67C502.55,195.25,509.37,181,516.46,166.83Z"/><path class="cls-1" d="M167,20.21c-5.17,15-10.61,29.8-16.06,44.64l-18.4,43.65L95.73,195.83,59,283.16,40.57,326.82c-6.83,14.26-13.64,28.53-20.69,42.69,5.2-14.94,10.65-29.78,16.08-44.63l18.38-43.66,36.77-87.32,36.77-87.32L146.26,62.9C153.06,48.63,159.88,34.36,167,20.21Z"/><path class="cls-1" d="M369.51,516.46c-15-5.17-29.8-10.61-44.64-16.06L281.22,482l-87.32-36.77-87.32-36.77L62.9,390.07c-14.26-6.83-28.53-13.64-42.69-20.69C35.16,374.58,50,380,64.84,385.46l43.66,18.38,87.32,36.77,87.32,36.77,43.67,18.37C341.09,502.55,355.36,509.37,369.51,516.46Z"/><path class="cls-1" d="M516.13,167c-15-5.17-29.8-10.61-44.64-16.06l-43.65-18.4L340.51,95.73,253.18,59,209.52,40.57C195.26,33.75,181,26.94,166.83,19.89c14.94,5.2,29.78,10.65,44.63,16.08l43.66,18.38,87.32,36.77,87.32,36.77,43.67,18.37C487.71,153.06,502,159.88,516.13,167Z"/></g></g></svg>