<svg xmlns="http://www.w3.org/2000/svg" viewBox="0 0 379.5 384.04"><defs><style>.cls-1{fill:#fff;}</style></defs><title>albm_brdr</title><g id="Layer_2" data-name="Layer 2"><g id="Layer_1-2" data-name="Layer 1"><path class="cls-1" d="M0,2.52C15.79,1.48,31.58.73,47.38,0L94.75,0H331.63c15.79.76,31.58,1.5,47.38,2.5-15.79,1-31.58,1.74-47.37,2.5H94.75L47.38,5C31.58,4.3,15.79,3.56,0,2.52Z"/><path class="cls-1" d="M.5,381.52c15.79-1,31.58-1.79,47.38-2.52l47.38,0H332.13c15.79.76,31.58,1.5,47.38,2.5-15.79,1-31.58,1.74-47.37,2.5H95.25l-47.37,0C32.08,383.3,16.29,382.56.5,381.52Z"/></g></g></svg>